<?xml version="1.0" encoding="UTF-8"?>
<svg id="_レイヤー_2" data-name="レイヤー 2" xmlns="http://www.w3.org/2000/svg" viewBox="0 0 302.0130117 44.6396552">
  <defs>
    <style>
      .cls-1 {
        fill: #a89563;
      }
    </style>
  </defs>
  <g id="_レイヤー_1-2" data-name="レイヤー 1">
    <g>
      <g>
        <path class="cls-1" d="m13.4002722,21.9755566h2.1710989c.7102691,0,1.6092889.1220113,1.6092889.9477692v7.435162s-2.4380567.8833164-6.8545357.8833164c-4.4114167,0-10.3261243-2.3925994-10.3261243-9.0236714,0-6.6092872,6.1572839-9.2021943,10.7160233-9.2021943,2.0425789,0,4.6071927.1215981,4.6071927,1.2535861v2.2144898c-1.7337797-1.3927613-2.4324779-1.6399725-5.064141-1.6399725-2.6307333,0-7.337312,1.7055755-7.337312,7.2186959,0,5.5197601,6.3172107,8.7981555,11.561011,6.7238599v-4.2268121c0-.8857821-.0514493-2.5842291-1.0825017-2.5842291Z"/>
        <path class="cls-1" d="m46.4121325,30.7994229h5.580284c-1.5456488-.5665623-2.1787439-2.39012-2.6847654-3.7193304-.5235845-1.3242515-4.5587393-10.9693437-5.0116585-12.3066125-.4454808-1.3181561-1.0901468-1.3181561-1.6001974-1.3181561h-3.2087632c1.5465786.5054016.7036599,1.5813947.4499232,2.330509-.2562134.7637846-5.6483695,13.8800521-5.6483695,13.8800521-1.8639526-.5009592-6.5341629-7.2591186-6.5341629-7.2591186,6.2279465-1.7655998,5.2609475-8.9514425-.8207095-8.9514425h-6.9901841c1.4044215.3051832,1.2772446,1.7670461,1.2772446,2.8935587v11.9347931c0,1.6404891-.5150097,2.0748121-1.3372688,2.5157472h5.1166235c-1.4044215-.6265865-1.0326021-2.080391-1.0326021-2.7649354v-12.8741045h2.7649355c1.4704378,0,2.5595515,1.7685958,2.5595515,2.972179,0,1.9426763-1.5375905,2.7048973-3.0766274,3.2753993-1.5345945.5604669-.7022108,1.8241776,0,2.8410762.7183274,1.0054311,2.7633858,3.8419478,3.9795731,5.2292333,1.2227966,1.3826227,2.2952771,1.3211521,2.8884938,1.3211521h4.6173171c-1.7902885-.5665623-.837446-1.950218-.5877384-2.638275.256314-.7093393,1.419505-3.6664485,1.419505-3.6664485h6.9140403s.8358963,2.140429,1.6042266,4.0371315c.7717396,1.8998019.194123,2.1454775-.6386709,2.2675921Zm-7.1809007-8.3209441l2.6398247-6.7566992,2.8067767,6.7566992h-5.4466014Z"/>
        <path class="cls-1" d="m102.5425023,30.7994229h5.5888574c-1.5400654-.5665623-2.1822565-2.39012-2.6841455-3.7193304-.5140753-1.3242515-4.5572929-10.9693437-5.0037035-12.3066125-.452506-1.3181561-1.0901468-1.3181561-1.6051564-1.3181561h-3.2022503c1.5416154.5054016.7032396,1.5813947.4514729,2.330509-.2643793.7637846-5.643828,13.8800521-5.643828,13.8800521-.3611783.81823-.8878622.8378592-1.2081289,1.1335378h4.6040932c-1.7953536-.5665623-.8273214-1.950218-.5795796-2.638275.247122-.7093393,1.4084506-3.6664485,1.4084506-3.6664485h6.9326393s.8364128,2.140429,1.6006107,4.0371315c.7582058,1.8998019.1846183,2.1454775-.6593319,2.2675921Zm-7.1636448-8.3209441l2.6190548-6.7566992,2.8300219,6.7566992h-5.4490767Z"/>
        <path class="cls-1" d="m82.8199533,31.127748c.6427031-.579063,1.2222827-1.0168987,1.2222827-3.0367626v-11.9226918c0-.9459234-.0493791-2.0173708-1.2222827-2.4077863h4.9456422c-.5099474.4479602-1.1188675,1.0129728-1.1188675,2.2776133v12.0528648c0,1.0739405-.2340014,2.6544054,1.1970746,3.0367626h-5.0238493Z"/>
        <path class="cls-1" d="m56.2771727,17.4924416s-.0630202,9.5240107-.0630202,10.5985437c0,1.0739405.1412273,2.6544054,1.5466819,3.0367626h-4.6869493c.6462157-.579063,1.1602955-1.0168987,1.1602955-3.0367626,0-2.0132245.1200484-10.9840002.1200484-11.9226918,0-.9459234-.1200484-2.0173708-1.2803439-2.4077863h3.596286l10.7634432,13.3195853v-10.853841c0-.6931193.1347222-2.017784-1.3387151-2.5227724h4.8068944c-.5791627.4474437-1.4235342.6280328-1.4235342,2.4648144v15.6556731s-1.3277641.2430928-3.5120868-2.3456959c-2.1837029-2.5827966-9.6889998-11.9858291-9.6889998-11.9858291Z"/>
        <path class="cls-1" d="m86.911103,44.5507484c-14.1000031-11.6927334-19.4880267-25.4587292-.2068304-44.2515703.5997294-.5776311,1.1778586-.2325694.7022107.3062164-8.4591754,9.501902-17.8727457,24.7201527-.1968091,43.3607121.2785288.298158.1674685.8999496-.2985713.5846418Z"/>
      </g>
      <g>
        <path class="cls-1" d="m120.3811758,35.399729c2.3901367-3.3703613,3.5849609-8.3033447,3.5849609-14.7989502v-9.7740479c0-.3370361.184082-.4902344.4902344-.4595947,1.7768555.0612793,2.6655273.3063965,2.6655273.7353516,0,.2451172-.3984375.5515137-1.2255859.8885498v8.5178223c0,7.1083984-1.6240234,12.2558594-4.8408203,15.4730225-.2148438.1838379-.4291992.2144775-.612793.0306396-.2143555-.1531982-.2143555-.3676758-.0615234-.612793Zm13.2363281-2.880127c-.3061523,0-.4594727-.1531982-.4594727-.4595947V12.481272c0-.3063965.1835938-.4902344.5209961-.4595947,1.6850586.1225586,2.5429688.3676758,2.5429688.7966309,0,.2451172-.4291992.5515137-1.2563477.8579102v18.3837891c0,.3063965-.1835938.4595947-.4902344.4595947h-.8579102Zm9.5288086,2.9414062c-.3061523,0-.4594727-.1531982-.4594727-.4595947V10.3058569c0-.3063965.184082-.4902344.5209961-.4595947,1.8076172.0919189,2.7270508.3983154,2.7270508.8579102,0,.3063965-.4594727.5821533-1.3789062.8579102v23.4393311c0,.3063965-.184082.4595947-.4902344.4595947h-.9194336Z"/>
        <path class="cls-1" d="m158.3504141,31.6616919c2.328125,1.3787842,6.3730469,2.0834961,12.1635742,2.0834961,1.8691406,0,4.3510742-.0919189,7.4458008-.3063965.3979492,0,.5205078.2144775.3061523.5821533-.2143555.3063965-.3984375.6740723-.5512695,1.0723877-.1230469.2451172-.2758789.3676758-.5517578.3676758h-6.7714844c-6.0053711,0-10.2641602-.8272705-12.8071289-2.5124512-1.5932617-1.0723877-2.7578125-2.7269287-3.5239258-4.9942627-.4594727,3.0026855-1.4399414,5.6070557-2.8798828,7.8743896-.1533203.2451172-.3984375.3063965-.6435547.1531982-.1835938-.0919189-.2143555-.2757568-.0917969-.5821533,1.4399414-3.1865234,2.175293-7.322876,2.2675781-12.4703369,0-.3370361.1835938-.4902344.5205078-.4595947,1.5322266.2144775,2.2978516.520874,2.2978516.8885498,0,.2144775-.3979492.4289551-1.1333008.6434326-.0615234.9498291-.0922852,1.654541-.1225586,2.1447754.4902344,1.654541,1.2866211,3.0333252,2.4204102,4.1669922v-10.019165h-4.9941406c-.2758789,0-.4594727-.1225586-.5517578-.3983154-.0610352-.2144775.1225586-.3676758.4594727-.3676758h5.0864258v-4.5959473h-4.0751953c-.2758789,0-.4594727-.1225586-.5512695-.3676758-.1225586-.2451172.0610352-.3983154.4287109-.3983154h4.1977539v-4.6878662c0-.3063965.184082-.4902344.4902344-.4595947,1.5932617.0612793,2.3901367.2757568,2.3901367.6434326,0,.2451172-.3984375.520874-1.2255859.8579102v3.6461182h1.8686523l.9804688-1.4400635c.184082-.3063965.4594727-.3370361.6743164-.0612793.3984375.3983154.765625.8579102,1.1030273,1.3175049.152832.2451172.152832.4289551,0,.6740723-.1225586.2144775-.2758789.2757568-.5209961.2757568h-4.1054688v4.5959473h2.4511719l1.0107422-1.5013428c.2148438-.3063965.4599609-.3370361.6743164-.0612793.4594727.4595947.8271484.9191895,1.1332962,1.4094238.1533249.1838379.1533249.3983154.0307663.6434326-.1225586.1838379-.2758789.2757568-.5512695.2757568h-4.7490234v4.6265869h1.6850586l1.0415039-1.4400635c.184082-.2451172.4291992-.2757568.6743164-.0306396.3676758.4289551.7661133.8579102,1.1333008,1.3175049.1533203.2144775.184082.3983154.0307617.6434326-.0917969.1838379-.2451172.2757568-.5209961.2757568h-4.0439453v5.9747314Zm16.2695264-14.0635986c.0918017-.3063965.3061572-.3983154.6127978-.2757568,1.2563477.5515137,1.8994141.9804688,1.8994141,1.2868652,0,.2757568-.3979492.4289551-1.1948242.4902344-.612793,1.8077393-1.5322266,3.7073975-2.7270508,5.6989746.5209961,1.3175049,1.1948242,2.5124512,1.9609375,3.5848389.2451172.3676758.4291992.5515137.5517578.5515137.3369141,0,.7661133-1.1949463,1.2563477-3.5541992.0610352-.3676758.3061523-.4902344.6123047-.3063965.184082.0919189.2758789.2757568.2148438.5821533-.3066406,1.8690186-.4599609,3.1252441-.4599609,3.6767578,0,.4595947.0922852.8272705.3066406,1.1030273.1533203.2144775.2758789.3983154.1225586.6434326-.2143555.4595947-.5820312.6740723-1.0415039.6740723-1.409668,0-2.9111328-1.74646-4.5043945-5.2393799-1.5317383,2.2060547-3.4624023,4.0750732-5.7294922,5.6070557-.2451172.1531982-.4902344.1225586-.6435547-.1225586-.1225586-.1225586-.0610352-.3063965.1533203-.520874,2.0834961-1.8383789,3.8911133-4.0137939,5.484375-6.5568848-1.1030273-2.880127-1.8076172-6.0360107-2.0834961-9.4676514h-3.4316406v11.2141113c.0917969-.0612793.2148438-.1225586.4291992-.2144775,1.0415039-.4595947,2.0527344-.9498291,2.9414062-1.4707031.3061523-.1838379.5209961-.0919189.612793.2144775.0610352.1531982-.0307617.3063965-.2451172.4902344-2.1757812,1.5626221-4.2895508,2.788208-6.3120117,3.7380371-.0610352.8272705-.2143555,1.2255859-.4594727,1.2255859-.3369141,0-.7661133-.612793-1.2871094-1.8383789-.1220703-.3370361-.0302734-.5515137.2758789-.6434326l2.3286133-.8272705v-12.9299316c0-.3676758.2451172-.520874.5517578-.3983154.3984375.1531982.9189453.3676758,1.5625.6740723h2.9414062c-.1225586-1.4707031-.1835938-3.309082-.2143555-5.4844971,0-.3063965.1835938-.4902344.5209961-.4595947,1.4707031.0612793,2.2363281.3063965,2.2363281.7047119,0,.2451172-.3369141.520874-1.0415039.7966309.0307617,2.1447754.0917969,3.5848389.152832,4.3508301h4.5961914l.7661133-1.1643066c.2143555-.3063965.4594727-.3370361.6738281-.0919189.3676758.3370361.6435547.7047119.9501953,1.0723877.1220703.2144775.152832.4289551.0302734.6434326-.0917969.2144775-.2753906.3063965-.5512695.3063965h-6.4038086c.2451172,3.0333252.7353516,5.6070557,1.4707031,7.7211914.796875-1.5932617,1.5014648-3.4316406,2.114253-5.4844971Zm-1.5932569-7.8131104c1.6542969.8885498,2.4819336,1.8383789,2.4819336,2.880127,0,.7047119-.3374023,1.041748-1.0112305,1.041748-.4902344,0-.796875-.3676758-.8886719-1.0723877-.1225586-.8272705-.4594727-1.5932617-1.0722656-2.267334-.2143555-.2451172-.2451172-.4289551-.0922852-.5515137.1230469-.1531982.3374023-.1838379.5825195-.0306396Z"/>
      </g>
      <g>
        <path class="cls-1" d="m190.3128164,22.9374487c0-.1506348.0751953-.2409668.2260742-.2409668h13.0874023c.1508789,0,.2412109.090332.2412109.2409668v.2108154c0,.1656494-.090332.2409668-.2412109.2409668h-13.0874023c-.1508789,0-.2260742-.0753174-.2260742-.2409668v-.2108154Z"/>
        <path class="cls-1" d="m211.8162344,19.9403784l.3310547-.4066162c.1054688-.1204834.2109375-.1355591.3466797-.0300903.4213867.3162231.6323242.5421753.6323242.6776733,0,.0903931-.0302734.1355591-.1054688.1807251l-.3012695.2108765v8.1326294c0,.5873413-.3764648.9187012-1.159668.9939575-.1503906,0-.2109375-.0752563-.2558594-.2258911-.0600586-.1656494-.1655273-.2861328-.3164062-.3614502-.1352539-.0602417-.3613281-.1505737-.6928711-.2258911-.1503906-.045166-.2104492-.1204834-.2104492-.2711182,0-.090332.090332-.135498.2407227-.1204834.4516602.0602417.8432617.0903931,1.1748047.0903931.2709961,0,.4213867-.1355591.4213867-.3765259v-2.8464355h-1.8974609c-.090332,1.807251-.5722656,3.2530518-1.4458008,4.352478-.090332.1204834-.2109375.1355591-.3310547.045166-.090332-.0602417-.090332-.1505737-.0151367-.2861328.6474609-1.2349243.9790039-2.9367676.9790039-5.1506348v-4.4880371c0-.1807251.1201172-.2560425.2861328-.1807251.2709961.1204834.4819336.2108765.6474609.2861328h1.671875Zm4.8793945-1.8373413h-3.2231445v.8885498c0,.1506348-.0751953.2258911-.2255859.2258911h-.3466797c-.1655273,0-.2407227-.0752563-.2407227-.2258911v-.8885498h-3.7348633c-.1357422,0-.2260742-.0602417-.2714844-.1807251-.0449219-.1204834.0454102-.1958008.2260742-.1958008h3.7802734v-1.1295166c0-.1506348.090332-.2409668.2558594-.2258911.7832031.0300903,1.1899414.1204834,1.1899414.3012085,0,.1204834-.2109375.2559814-.6328125.4066162v.647583h3.2231445v-1.1295166c0-.1506348.090332-.2409668.2558594-.2409668.7382812.0300903,1.1147461.1355591,1.1147461.3012085,0,.1204834-.1806641.2409668-.5576172.3765259v.692749h2.6206055l.5576172-.7529907c.1049805-.1355591.2104492-.1506348.3310547-.0452271.2109375.2259521.4370117.4518433.6625977.7229004.0751953.1054688.090332.1958008.0302734.3313599-.0454102.090332-.1357422.1204834-.2709961.1204834h-3.9311523v.7078247c0,.1656494-.090332.2409668-.2407227.2409668h-.331543c-.1655273,0-.2407227-.0753174-.2407227-.2409668v-.7078247Zm-4.7744141,6.8826294v-2.1988525h-1.8671875v1.5813599c0,.2409668,0,.4517822-.0151367.6174927h1.8823242Zm-1.8671875-4.6687622v2.0933838h1.8671875v-2.0933838h-1.8671875Zm8.1025391,1.4909668c.3916016-.6626587.7226562-1.3554077.9790039-2.0933838.0449219-.1505737.1655273-.1958008.315918-.1355591.6328125.2861938.9487305.4970093.9487305.647644,0,.1054077-.1953125.1807251-.5869141.1957397-.2861328.4216919-.6630859.8735352-1.159668,1.3855591h1.1293945l.421875-.5421753c.090332-.1204834.2104492-.135498.3310547-.0300903.1806641.1656494.3466797.3614502.4970703.5421753.0751953.090332.0751953.1807251,0,.3012085-.0454102.0753174-.1206055.1054077-.2412109.1054077h-2.4848633c.3164062.4668579.6777344.8885498,1.0844727,1.25h.9487305l.4516602-.5722656c.0908203-.1204834.2109375-.1355591.331543-.045166.1806641.1656494.3461914.3463745.5273438.5722656.090332.0903931.090332.1958008.0297852.3162842-.0449219.0753174-.1206055.1054077-.2407227.1054077h-1.5966797c.5874023.4367676,1.3105469.8132935,2.184082,1.1445923.1503906.0602417.1806641.1807251.0600586.3162842-.1054688.1204834-.2109375.2409668-.2861328.3765259-.0751953.135498-.1958008.1656494-.331543.090332-1.0390625-.5421753-1.8974609-1.1897583-2.5449219-1.9277344h-2.8764648c-.3012695.4367676-.6328125.8433838-1.0244141,1.2349854l-.0600586.0602417c.7832031.3463745,1.159668.7229004,1.159668,1.1445923,0,.3012085-.1508789.4517822-.4516602.4517822-.1958008,0-.3164062-.1355591-.3916016-.3765259-.1054688-.3764648-.2861328-.692749-.5576172-.9788818-.40625.3463745-.8735352.6776733-1.3701172.9939575-.1206055.0753174-.2412109.0602417-.331543-.0602417-.0600586-.0753174-.0449219-.1807251.090332-.2710571.8583984-.6626587,1.5512695-1.4006348,2.1083984-2.1988525h-1.8374023c-.1352539,0-.2104492-.0602417-.2709961-.1807251-.0600586-.1204834.0302734-.1958008.2109375-.1958008h2.1386719c.2255859-.3764648.4213867-.7981567.5874023-1.25h-2.1235352c-.1357422,0-.2260742-.0602417-.2861328-.1807251-.0454102-.1204834.0449219-.1958008.2255859-.1958008h2.3193359l.0454102-.1204834c.2255859-.602417.3310547-1.3102417.4213867-2.1084595.0151367-.1656494.1054688-.2258911.2714844-.2108154.7226562.1054077,1.0839844.2560425,1.0839844.4216919,0,.1054077-.1806641.2108154-.5722656.3162842-.1201172.692749-.2709961,1.25-.4213867,1.7017822h1.1445312Zm-.4521484,4.4880371c.5273438.1807251.8286133.2861328.9038086.3312988.2861328-.4367065.512207-.9186401.7080078-1.4156494.0600586-.1656494.1806641-.2108765.3310547-.1355591.5424805.2711182.8134766.4819336.8134766.6174927,0,.1054077-.1806641.1656494-.5571289.1656494-.1660156.2108765-.4819336.512085-.934082.9187012,1.3256836.602417,1.9882812,1.1295166,1.9882812,1.5963745,0,.3313599-.1508789.4819336-.4521484.4819336-.1352539,0-.3007812-.1204834-.496582-.3614502-.5273438-.6776733-1.2954102-1.295166-2.3046875-1.807251v2.2289429c0,.557251-.315918.8433838-.9487305.8886108-.1352539.0150146-.2109375-.0602417-.2558594-.1958008-.0454102-.1656494-.1503906-.2711182-.3012695-.3463745-.1503906-.0903931-.4067383-.1657104-.7832031-.2259521-.1503906-.0300903-.2255859-.1204834-.2255859-.2710571,0-.0903931.090332-.1355591.2558594-.1054077.3012695.0300903.6474609.045166,1.0087891.045166.3012695,0,.4521484-.1355591.4521484-.4066162v-1.2801514c-.8134766.5873413-1.5966797,1.0843506-2.3496094,1.4608765-.0151367.3463745-.0751953.5120239-.1806641.5120239-.1655273,0-.3613281-.2710571-.6025391-.8132324-.0751953-.1506348-.0151367-.2711182.1357422-.3162842,1.1142578-.3463745,2.1235352-.7680664,2.9970703-1.2650757v-2.0783691c0-.1505737.090332-.2409668.2558594-.2258911.7231445.0602417,1.0844727.1656494,1.0844727.3313599,0,.1054077-.1806641.2409668-.5424805.3764648v1.2952271Zm-3.5239258-6.7772217c.9638672.4669189,1.4458008.9789429,1.4458008,1.5211182,0,.3614502-.1655273.5421753-.5268555.5421753-.2109375,0-.3466797-.1656494-.421875-.5120239-.090332-.4216919-.331543-.8283691-.737793-1.2349854-.1054688-.1054077-.1206055-.1958008-.0605469-.2861328.0605469-.0753174.1655273-.0903931.3012695-.0301514Zm2.7109375,2.6657104c-.1806641.4518433-.3916016.8735352-.6025391,1.25h2.3193359c-.2558594-.3614502-.512207-.7831421-.7680664-1.25h-.9487305Z"/>
        <path class="cls-1" d="m233.6809805,19.8952124l.421875-.4970093c.1049805-.1204834.2104492-.1204834.3461914-.0300903.4970703.3915405.737793.6325073.737793.7529907,0,.0753174-.0449219.1506348-.1655273.2259521l-.3461914.2258911v4.1867676c0,.1657104-.0756836.2409668-.2412109.2409668h-.3916016c-.1503906,0-.2255859-.0752563-.2255859-.2409668v-.3012085h-2.3046875v4.2169189c0,.6777344-.4213867,1.0391846-1.2797852,1.0843506-.1508789,0-.2109375-.0752563-.2563477-.2258911-.0449219-.1505737-.1352539-.2710571-.2709961-.3463745-.1655273-.0903931-.5874023-.1807251-1.2651367-.3162842-.1503906-.0300903-.2255859-.1054077-.2255859-.2560425,0-.090332.090332-.1505737.2558594-.135498.512207.0602417,1.0390625.090332,1.581543.090332.2558594,0,.4213867-.0300903.4819336-.090332.0600586-.0753174.1049805-.1958008.1049805-.3765259v-3.6446533h-2.5297852v.3916016c0,.1505737-.0751953.2409668-.2260742.2409668h-.3764648c-.1503906,0-.2407227-.0903931-.2407227-.2409668v-5.0904541c0-.1807251.1201172-.2559814.2861328-.1656494l-.1508789-.0753174.1958008.0903931.6176758.2861328h1.8671875c.1660156-.6325073.3012695-1.295166.3916016-1.9578247h-4.6987305v3.1777344c0,3.750061-.6777344,6.5814209-2.0483398,8.4940796-.090332.1204834-.1958008.1355591-.3310547.0602417-.090332-.0753174-.1054688-.1656494-.0454102-.3012085.9941406-1.897644,1.4912109-4.6536865,1.4912109-8.2531128v-3.704895c0-.1656494.1054688-.2559814.2709961-.1807251.2407227.0903931.4970703.2108765.7680664.3313599h8.7954102l.6474609-.8283081c.1054688-.1204834.2260742-.1355591.3310547-.0301514.2714844.2258911.5424805.4970093.7832031.7680664.090332.1054688.1054688.2108765.0605469.3162842-.0454102.1054077-.1357422.1506348-.2709961.1506348h-4.5483398c-.331543.7078247-.6928711,1.3704834-1.1147461,1.9578247h3.1176758Zm-8.2382812,9.1115723c.9941406-.8283081,1.8525391-1.9277344,2.5454102-3.2832031.0600586-.135498.1806641-.1807251.331543-.1054077.6625977.3012085.9936523.5270996.9936523.6928101,0,.1505737-.2407227.2258911-.7075195.2258911-.6928711,1.159668-1.671875,2.0933838-2.9067383,2.8162842-.1206055.0602417-.2260742.045166-.3164062-.045166-.090332-.1054077-.0751953-.2108765.0600586-.3012085Zm8.3740234-7.0934448v-1.6416016h-5.7080078v1.6416016h5.7080078Zm0,2.1687012v-1.7922363h-5.7080078v1.7922363h5.7080078Zm-.9492188,1.4307251c1.0541992.5120239,1.8525391,1.0541992,2.4399414,1.6566162.4819336.4819336.7231445.9036255.7231445,1.250061,0,.3764648-.1811523.5571899-.5424805.5571899-.1503906,0-.3310547-.1656494-.5268555-.5120239-.4970703-.9187012-1.2651367-1.7771606-2.3041992-2.6205444-.1206055-.090332-.1508789-.1957397-.0756836-.2861328.0605469-.090332.1508789-.1054077.2861328-.045166Z"/>
        <path class="cls-1" d="m244.2957266,17.4403784l.4067383-.512085c.1054688-.1054077.2255859-.1204834.3461914-.0300903.4819336.3765259.7080078.647583.7080078.7831421,0,.0753174-.0302734.1204834-.1206055.1807251l-.3613281.2258911v.4970093h5l.6025391-.8584595c.0751953-.1355591.2109375-.1505737.3310547-.0150757.2861328.2861938.512207.557251.6928711.7831421.090332.1054688.090332.2108765.0302734.3162842-.0454102.1054077-.1206055.1506348-.2563477.1506348h-2.5600586v9.4729614c0,.6928101-.4516602,1.0994263-1.3554688,1.2349854-.1503906.0150757-.2260742-.0602417-.2861328-.2108765-.0600586-.1807251-.2407227-.3463745-.4970703-.4367065-.2407227-.1054688-.6928711-.2108765-1.3706055-.3162842-.1503906-.0150757-.2255859-.1054077-.2255859-.2560425,0-.1204834.090332-.1958008.2558594-.1656494.8583984.090332,1.5209961.1355591,2.0180664.1355591.3613281,0,.5424805-.1807251.5424805-.512085v-8.9458618h-2.921875v7.7410278c0,.1656494-.0751953.2409668-.2260742.2409668h-.3764648c-.1503906,0-.2407227-.0753174-.2407227-.2409668v-.9487915h-4.3979492v1.4458008c0,.1505737-.0751953.2409668-.2255859.2409668h-.3916016c-.1508789,0-.2412109-.0903931-.2412109-.2409668v-9.90979c0-.1807251.1206055-.2559814.2709961-.1807251.2109375.0753174.4370117.1958008.6777344.3313599h4.171875Zm-4.262207.3765259v3.3584595h1.7021484v-3.3584595h-1.7021484Zm1.7021484,3.7349854h-1.7021484v3.8253174h1.7021484v-3.8253174Zm2.6958008-.3765259v-3.3584595h-1.8525391v3.3584595h1.8525391Zm0,4.2018433v-3.8253174h-1.8525391v3.8253174h1.8525391Z"/>
        <path class="cls-1" d="m263.5994375,28.6151831h-4.6538086c-.1503906,0-.2255859-.0752563-.2255859-.2258911,0-.1656494.0751953-.2409668.2407227-.2409668.6928711-.0150757,1.1293945-.0602417,1.3251953-.1505737.3466797-.1506348.512207-.4669189.512207-.9638672v-7.274231c0-.5270996-.2709961-.7981567-.7832031-.7981567h-1.25c-.1655273,0-.2407227-.0753174-.2407227-.2409668,0-.1204834.0751953-.1807251.2255859-.1958008,1.2651367-.1506348,2.2138672-.4216919,2.831543-.7831421.1503906-.0903931.2709961-.0301514.2709961.1505737v9.1417236c0,.4668579.1508789.7680664.4516602.9337158.1958008.1054077.6176758.1656494,1.2954102.1807251.1503906,0,.2412109.0753174.2412109.2409668,0,.1506348-.0756836.2258911-.2412109.2258911Z"/>
        <path class="cls-1" d="m276.1873281,19.3229468v6.0844116h.2558594l.4970703-.7229004c.090332-.1506348.2260742-.1657104.331543-.0150757.1958008.2409668.3613281.4819336.5117188.692749.0756836.1054688.0756836.2108765,0,.3162842-.0449219.0753174-.1201172.1054077-.2407227.1054077h-6.9277344c-.1206055,0-.2109375-.0602417-.2558594-.1807251-.0454102-.1204834.0449219-.1957397.2255859-.1957397h1.5512695v-6.0844116h-1.3857422c-.1503906,0-.2255859-.0602417-.2709961-.1958008-.0297852-.1054077.0605469-.1807251.2260742-.1807251h1.4306641v-2.3795776c0-.1505737.090332-.2409668.2558594-.2258911.7983398.0602417,1.2050781.1656494,1.2050781.3463745,0,.1355591-.1958008.2560425-.6176758.3916016v1.8674927h2.3647461v-2.3795776c0-.1505737.090332-.2409668.2558594-.2258911.8134766.0602417,1.2197266.1656494,1.2197266.3463745,0,.1355591-.2104492.2560425-.6323242.3916016v1.8674927h.2861328l.4667969-.7078247c.090332-.1355591.2260742-.1355591.331543-.0150757.1806641.2108154.3461914.4367676.4970703.6325073.0751953.1204834.0751953.2108765.0146484.3313599-.0600586.1054077-.1503906.1355591-.2709961.1355591h-1.3251953Zm-5.737793,10.0302124c.8129883-.7680664,1.5058594-1.7470093,2.0478516-2.9216919.0605469-.1506348.1806641-.1807251.331543-.1204834.6625977.3162231.9941406.5722656.9941406.7529907,0,.1054077-.1357422.1656494-.3916016.1656494-.090332,0-.1806641-.0150146-.2563477-.0150146-.5722656.9487915-1.3706055,1.7770996-2.4394531,2.4849243-.1206055.0753174-.2260742.0602417-.3164062-.0300903-.090332-.1054077-.0751953-.2108765.0302734-.3162842Zm2.5297852-8.4639282h2.3647461v-1.5662842h-2.3647461v1.5662842Zm2.3647461.3764648h-2.3647461v1.762085h2.3647461v-1.762085Zm0,2.1386108h-2.3647461v2.0030518h2.3647461v-2.0030518Zm-.4370117,2.7409668c1.4306641.5874023,2.1538086,1.1898193,2.1538086,1.852478,0,.3463745-.1806641.5120239-.4970703.5120239-.2109375,0-.3613281-.1505737-.4970703-.4517822-.1958008-.512085-.6474609-1.0391846-1.3554688-1.5813599-.1201172-.0903931-.1503906-.1807251-.090332-.2711182.0454102-.090332.1508789-.1054077.2861328-.0602417Zm7.184082-8.8856201l.4516602-.5270996c.1054688-.1204834.2260742-.1355591.331543-.0150757.4667969.4066162.6923828.6777344.6923828.8132324,0,.0452271-.0297852.0903931-.0751953.1204834l-.3764648.2409668v10.4067993c0,.8283081-.4365234,1.2800903-1.3100586,1.3554077-.1508789.0150757-.2109375-.0602417-.2563477-.2108154-.0600586-.1807251-.1958008-.3162842-.40625-.4216919-.2109375-.0903931-.6176758-.2108765-1.1899414-.3162842-.1503906-.0150757-.2260742-.1054077-.2260742-.2560425,0-.1054077.090332-.1656494.2563477-.1505737.5874023.090332,1.1743164.1204834,1.7617188.1204834.3466797,0,.512207-.1506348.512207-.4518433v-3.4940186h-2.8764648c-.2861328,2.3042603-1.1899414,4.0361938-2.7260742,5.2109375-.1206055.090332-.2255859.0752563-.3310547-.0301514-.090332-.090332-.0756836-.1958008.0449219-.3012085,1.5063477-1.5060425,2.2592773-3.7952271,2.2592773-6.897644v-5.3464966c0-.1807251.1054688-.2559814.2709961-.1957397.2407227.1054077.4819336.2258911.7226562.3463745h2.4702148Zm-2.6806641,6.8374023h2.8461914v-3.1174927h-2.7709961v1.4608765c0,.602417-.0151367,1.1144409-.0605469,1.5361328l-.0146484.1204834Zm.0751953-6.4608765v2.9668579h2.7709961v-2.9668579h-2.7709961Z"/>
        <path class="cls-1" d="m288.4583242,22.9374487c0-.1506348.0751953-.2409668.2260742-.2409668h13.0874023c.1508789,0,.2412109.090332.2412109.2409668v.2108154c0,.1656494-.090332.2409668-.2412109.2409668h-13.0874023c-.1508789,0-.2260742-.0753174-.2260742-.2409668v-.2108154Z"/>
      </g>
    </g>
  </g>
</svg>